{"title":"The.Other.1972.1080p.BluRay.x264.DTS-FGT","uid":12110634,"size":8083979359,"categoryP":"video","categoryS":"hd___movies","magnet":"?xt=urn:btih:2bbe4e9c7fdbf7d2128804c366d27975a1ded754&amp;dn=The.Other.1972.1080p.BluRay.x264.DTS-FGT&amp;tr=udp%3A%2F%2Ftracker.openbittorrent.com%3A80&amp;tr=udp%3A%2F%2Fopen.demonii.com%3A1337&amp;tr=udp%3A%2F%2Ftracker.coppersurfer.tk%3A6969&amp;tr=udp%3A%2F%2Fexodus.desync.com%3A6969","seeders":0,"leechers":4,"uploader":null,"files":3,"time":1436563081,"description":"\nVideo\nID                                       : 1\nFormat                                   : AVC\nFormat/Info                              : Advanced Video Codec\nFormat profile                           : &lt;a class=&quot;__cf_email__&quot; href=&quot;/cdn-cgi/l/email-protection&quot; data-cfemail=&quot;2169484649616d150f10&quot;&gt;[email&amp;#160;protected]&lt;/a&gt;&lt;script data-cfhash='f9e31' type=&quot;text/javascript&quot;&gt;\n/* &lt;![CDATA[ */!function(){try{var t=&quot;currentScript&quot;in document?document.currentScript:function(){for(var t=document.getElementsByTagName(&quot;script&quot;),e=t.length;e--;)if(t[e].getAttribute(&quot;data-cfhash&quot;))return t[e]}();if(t&amp;&amp;t.previousSibling){var e,r,n,i,c=t.previousSibling,a=c.getAttribute(&quot;data-cfemail&quot;);if(a){for(e=&quot;&quot;,r=parseInt(a.substr(0,2),16),n=2;a.length-n;n+=2)i=parseInt(a.substr(n,2),16)^r,e+=String.fromCharCode(i);e=document.createTextNode(e),c.parentNode.replaceChild(e,c)}t.parentNode.removeChild(t);}}catch(u){}}()/* ]]&gt; */&lt;/script&gt;\nFormat settings, CABAC                   : Yes\nFormat settings, ReFrames                : 4 frames\nCodec ID                                 : V_MPEG4/ISO/AVC\nDuration                                 : 1h 39mn\nBit rate                                 : 10 000 Kbps\nWidth                                    : 1 920 pixels\nHeight                                   : 1 040 pixels\nDisplay aspect ratio                     : 1.85:1\nFrame rate mode                          : Constant\nFrame rate                               : 23.976 fps\nColor space                              : YUV\nChroma subsampling                       : 4:2:0\nBit depth                                : 8 bits\nScan type                                : Progressive\nBits/(Pixel*Frame)                       : 0.209\nStream size                              : 6.84 GiB (91%)\nWriting library                          : x264 core 142 r2479 dd79a61\nEncoding settings                        : cabac=1 / ref=3 / deblock=1:0:0 / analyse=0x3:0x113 / me=hex / subme=7 / psy=1 / psy_rd=1.00:0.00 / mixed_ref=1 / me_range=16 / chroma_me=1 / trellis=1 / 8x8dct=1 / cqm=0 / deadzone=21,11 / fast_pskip=1 / chroma_qp_offset=-2 / threads=12 / lookahead_threads=2 / sliced_threads=0 / nr=0 / decimate=1 / interlaced=0 / bluray_compat=0 / constrained_intra=0 / bframes=3 / b_pyramid=2 / b_adapt=1 / b_bias=0 / direct=1 / weightb=1 / open_gop=0 / weightp=2 / keyint=240 / keyint_min=24 / scenecut=40 / intra_refresh=0 / rc_lookahead=40 / rc=abr / mbtree=1 / bitrate=10000 / ratetol=1.0 / qcomp=0.60 / qpmin=0 / qpmax=69 / qpstep=4 / vbv_maxrate=62500 / vbv_bufsize=78125 / nal_hrd=none / filler=0 / ip_ratio=1.40 / aq=1:1.00\nLanguage                                 : English\nDefault                                  : Yes\nForced                                   : No\nColor range                              : Limited\nColor primaries                          : BT.709\nTransfer characteristics                 : BT.709\nMatrix coefficients                      : BT.709\n\nAudio\nID                                       : 2\nFormat                                   : DTS\nFormat/Info                              : Digital Theater Systems\nMode                                     : 16\nFormat settings, Endianness              : Big\nCodec ID                                 : A_DTS\nDuration                                 : 1h 39mn\nBit rate mode                            : Constant\nBit rate                                 : 768 Kbps\nChannel(s)                               : 1 channel\nChannel positions                        : Front: C\nSampling rate                            : 48.0 KHz\nBit depth                                : 24 bits\nCompression mode                         : Lossy\nStream size                              : 549 MiB (7%)\nLanguage                                 : English\nDefault                                  : Yes\nForced                                   : No\n\nText\nID                                       : 3\nFormat                                   : PGS\nMuxing mode                              : zlib\nCodec ID                                 : S_HDMV/PGS\nCodec ID/Info                            : Picture based subtitle format used on BDs/HD-DVDs\nLanguage                                 : English\nDefault                                  : No\nForced                                   : No\n\nMenu\n00:00:00.000                             : :Chapter 1\n00:07:54.974                             : :Chapter 2\n00:15:10.785                             : :Chapter 3\n00:24:47.319                             : :Chapter 4\n00:36:10.377                             : :Chapter 5\n00:41:33.282                             : :Chapter 6\n00:47:34.769                             : :Chapter 7\n00:57:13.513                             : :Chapter 8\n01:04:44.672                             : :Chapter 9\n01:16:24.872                             : :Chapter 10\n01:28:09.910                             : :Chapter 11\n01:39:33.384                             : :Chapter 12","torrent":{"xt":"urn:btih:2bbe4e9c7fdbf7d2128804c366d27975a1ded754","amp;dn":"The.Other.1972.1080p.BluRay.x264.DTS-FGT","amp;tr":["udp%3A%2F%2Ftracker.openbittorrent.com%3A80","udp%3A%2F%2Fopen.demonii.com%3A1337","udp%3A%2F%2Ftracker.coppersurfer.tk%3A6969","udp%3A%2F%2Fexodus.desync.com%3A6969"],"infoHash":"2bbe4e9c7fdbf7d2128804c366d27975a1ded754","infoHashBuffer":{"type":"Buffer","data":[43,190,78,156,127,219,247,210,18,136,4,195,102,210,121,117,161,222,215,84]},"announce":[],"urlList":[]}}